<?xml version="1.0" encoding="UTF-8"?>
<svg id="Layer_1" data-name="Layer 1" xmlns="http://www.w3.org/2000/svg" viewBox="0 0 698.19 223.42">
  <defs>
    <style>
      .cls-1 {
        stroke: #231f20;
        stroke-miterlimit: 10;
      }

      .cls-1, .cls-2 {
        fill: #fff;
      }

      .cls-2 {
        stroke-width: 0px;
      }
    </style>
  </defs>
  <path class="cls-2" d="m122.01,190.82l9.96,9.95h0c-13.99,14-33.32,22.65-54.66,22.65C34.61,223.42,0,188.81,0,146.11s34.61-77.31,77.31-77.31c21.33,0,40.66,8.66,54.65,22.65h.01l-23.05,23.05c-.51-.51-1.03-1.01-1.56-1.48-.79-.73-1.61-1.42-2.45-2.08h-.01c-.56-.45-1.13-.88-1.71-1.29h0c-.87-.63-1.77-1.22-2.69-1.78-6.76-4.11-14.69-6.47-23.18-6.47-12.35,0-23.52,5-31.61,13.1-1.52,1.52-2.93,3.14-4.22,4.86-.64.86-1.25,1.75-1.84,2.65-.38.61-.76,1.22-1.12,1.85-.89,1.56-1.7,3.18-2.41,4.85-.28.67-.55,1.34-.8,2.03-.62,1.71-1.15,3.47-1.57,5.27-.25,1.08-.46,2.18-.63,3.29-.33,2.22-.51,4.49-.51,6.81s.18,4.59.51,6.81c.17,1.11.38,2.21.63,3.29.42,1.8.95,3.56,1.57,5.28.25.68.52,1.36.8,2.03.71,1.67,1.52,3.29,2.41,4.85.36.62.74,1.24,1.12,1.84.59.91,1.2,1.8,1.84,2.66,1.29,1.72,2.7,3.34,4.22,4.86,8.09,8.09,19.26,13.09,31.61,13.09,8.49,0,16.42-2.36,23.18-6.47.92-.55,1.82-1.14,2.69-1.77h0c.58-.41,1.15-.84,1.71-1.29h.01c.84-.66,1.66-1.35,2.45-2.08.53-.47,1.04-.96,1.55-1.48h.01l13.08,13.09h0Z"/>
  <path class="cls-2" d="m32.6,146.11c0,2.32.18,4.59.51,6.81-.34-2.22-.52-4.49-.52-6.81s.18-4.59.52-6.81c-.33,2.22-.51,4.49-.51,6.81Z"/>
  <path class="cls-2" d="m33.74,156.21c.42,1.8.95,3.56,1.57,5.28-.63-1.72-1.16-3.48-1.57-5.28Z"/>
  <path class="cls-2" d="m35.31,130.74c-.62,1.71-1.15,3.47-1.57,5.27.41-1.8.94-3.56,1.57-5.27Z"/>
  <path class="cls-2" d="m36.11,163.52c.71,1.67,1.52,3.29,2.41,4.85-.9-1.56-1.71-3.18-2.41-4.85Z"/>
  <path class="cls-2" d="m36.11,128.71c.7-1.67,1.51-3.29,2.41-4.85-.89,1.56-1.7,3.18-2.41,4.85Z"/>
  <path class="cls-2" d="m39.64,170.21c.59.91,1.2,1.8,1.84,2.66-.65-.86-1.26-1.75-1.84-2.66Z"/>
  <path class="cls-2" d="m39.64,122.01c.58-.9,1.19-1.79,1.84-2.65-.64.86-1.25,1.75-1.84,2.65Z"/>
  <path class="cls-2" d="m41.48,172.87c1.29,1.72,2.7,3.34,4.22,4.86-1.52-1.51-2.94-3.14-4.22-4.86Z"/>
  <path class="cls-2" d="m41.48,119.36c1.28-1.72,2.7-3.35,4.22-4.86-1.52,1.52-2.93,3.14-4.22,4.86Z"/>
  <polygon class="cls-2" points="108.92 177.73 122 190.82 108.91 177.73 108.92 177.73"/>
  <polygon class="cls-2" points="122.02 101.4 108.92 114.5 122.01 101.4 122.02 101.4"/>
  <polygon class="cls-2" points="131.97 91.45 122.02 101.4 131.96 91.45 131.97 91.45"/>
  <polygon class="cls-2" points="122.01 190.82 131.97 200.77 131.97 200.78 122.01 190.82"/>
  <path class="cls-2" d="m100.49,184.35c.92-.56,1.81-1.15,2.69-1.77-.87.63-1.77,1.22-2.69,1.77Z"/>
  <path class="cls-2" d="m100.49,107.87c.92.56,1.82,1.15,2.69,1.78-.88-.62-1.77-1.21-2.69-1.78Z"/>
  <path class="cls-2" d="m104.91,181.29c.84-.67,1.65-1.36,2.45-2.08-.79.73-1.61,1.42-2.45,2.08Z"/>
  <path class="cls-2" d="m107.36,113.02c-.8-.72-1.61-1.41-2.45-2.08.84.66,1.66,1.35,2.45,2.08Z"/>
  <polygon class="cls-2" points="335.27 223.42 300.68 223.42 257.97 110.48 215.67 223.42 180.65 223.42 192.85 190.82 209.59 146.11 226.33 101.4 238.53 68.8 277.39 68.8 289.59 101.4 323.07 190.82 335.27 223.42"/>
  <path class="cls-2" d="m450.96,174.09c-.72.07-1.44.11-2.17.15l-.15-.15h2.32Z"/>
  <path class="cls-2" d="m450.96,174.09h-2.32l.15.15h-.02s.03.01.03.01l49.17,49.17h-42.27l-49.12-49.12v-32.6h39.13c11.01,0,20.41-8.56,20.78-19.57.38-11.5-8.83-20.95-20.25-20.95h-53.79c-17.76,0-32.16-14.4-32.16-32.16h85.03c29.02,0,53.28,23.1,53.56,52.13.08,9.02-2.1,17.52-6.01,24.96-8.11,15.44-23.68,26.36-41.91,27.98Z"/>
  <polygon class="cls-2" points="684.53 192.38 684.53 223.2 574.56 223.2 574.56 68.8 607.96 68.8 607.96 192.38 684.53 192.38"/>
  <line class="cls-1" x1="607.96" y1="223.42" x2="607.96" y2="223.2"/>
  <rect class="cls-2" x="574.56" y="68.8" width="33.4" height="128.85"/>
</svg>